<svg preserveAspectRatio="none" width="100%" height="100%" overflow="visible" style="display: block;" viewBox="0 0 300 300" fill="none" xmlns="http://www.w3.org/2000/svg">
<g id="Frame 10652">
<g id="Vector">
<path d="M150 0C185.716 4.25903e-07 220.259 12.7438 247.417 35.9391C274.576 59.1345 292.566 91.2591 298.153 126.535C303.741 161.811 296.557 197.922 277.896 228.375C259.235 258.827 230.32 281.622 196.353 292.658C162.385 303.695 125.594 302.25 92.5976 288.582C59.6009 274.914 32.5637 249.921 16.3492 218.099C0.134728 186.276 -4.1929 149.712 4.14473 114.983C12.4823 80.2545 32.938 49.6404 61.8325 28.6474L150 150V0Z" fill="var(--fill-0, #00B800)"/>
<path d="M70.0002 33C70.0002 35.7614 67.5378 38 64.5002 38C61.4626 38 59.0002 35.7614 59.0002 33C59.0002 30.2386 61.4626 28 64.5002 28C67.5378 28 70.0002 30.2386 70.0002 33Z" fill="var(--fill-0, #00B800)"/>
<path d="M155 5C155 7.76142 152.538 10 149.5 10C146.463 10 144 7.76142 144 5C144 2.23858 146.463 0 149.5 0C152.538 0 155 2.23858 155 5Z" fill="var(--fill-0, #00B800)"/>
</g>
<circle id="Ellipse 266" cx="149.5" cy="149.5" r="139.5" fill="var(--fill-0, #1D1D1D)"/>
</g>
</svg>
