<?xml version="1.0" encoding="UTF-8"?>
<svg width="586px" height="505px" viewBox="0 0 586 505" version="1.1" xmlns="http://www.w3.org/2000/svg" xmlns:xlink="http://www.w3.org/1999/xlink">
    <!-- Generator: Sketch 58 (84663) - https://sketch.com -->
    <title>Untitled 3</title>
    <desc>Created with Sketch.</desc>
    <g id="Page-1" stroke="none" stroke-width="1" fill="none" fill-rule="evenodd">
        <path d="M496.759291,1.12327102 C504.519818,7.44434754 509.525578,11.6283654 511.776572,13.6753246 L511.905806,13.793269 L512.467219,14.3112178 C557.201712,55.8890709 585.355848,115.064627 585.914457,180.822715 L585.922927,182.817388 L585.922927,228.817388 C585.922927,301.840464 557.564185,368.240001 511.259123,417.603579 C509.257349,419.737573 506.492432,422.533126 502.964372,425.990238 L502.499863,426.444918 L500.63571,428.260615 C498.992957,429.854844 496.48725,430.123514 494.550731,428.941658 L494.34549,428.809475 L494.013241,428.583557 C494.906012,430.186907 494.879429,432.22384 493.773306,433.841776 C493.538855,434.184708 493.262581,434.497086 492.950871,434.771688 L490.46446,436.950409 C486.795915,440.146372 483.789549,442.676522 481.445362,444.540859 C434.323923,482.016649 374.668085,504.406974 309.782706,504.406974 L275.782706,504.406974 C210.363358,504.406974 150.259977,481.646614 102.959255,443.612586 L101.529826,442.455372 C99.3346419,440.66615 96.424435,438.168464 92.7992054,434.962315 C90.9633943,433.338726 90.6041804,430.667169 91.8254219,428.64063 L91.5774362,428.809475 C89.6157565,430.141014 86.9886391,429.91178 85.2872164,428.260615 L82.5388503,425.57856 C79.2105221,422.31054 76.5855066,419.652213 74.6638039,417.603579 C28.3587413,368.240001 0,301.840464 0,228.817388 L0,182.817388 C0,116.261888 28.2693514,56.3090492 73.4557077,14.3112178 L74.2819434,13.5524503 C76.5947118,11.4634646 81.555276,7.32040486 89.163636,1.12327102 C90.8512188,-0.251285981 93.2341409,-0.37623355 95.0562201,0.814300022 L126.573242,21.4072979 C128.86646,22.9056656 129.524,25.9667511 128.059881,28.2723035 C128.177446,28.1013596 128.297765,27.928336 128.419812,27.7531463 C129.956075,25.5479581 132.960749,24.9516751 135.222676,26.4031039 L138.480314,28.493458 C140.804419,29.9847741 141.479518,33.0777866 139.988194,35.4018869 C139.978066,35.4176705 139.967849,35.4333971 139.957544,35.4490658 C138.310451,37.9534667 137.021083,39.9797333 136.089438,41.5278657 C120.204083,67.9248831 110.791366,98.6586416 110.047677,131.53275 L110.037,132.071 L110.048394,131.536573 C110.810584,98.3642636 120.399009,67.3732764 136.557153,40.8205911 L137.075239,39.9743942 C137.774236,38.8396313 138.70709,37.3874602 139.873802,35.6178809 C141.378663,33.3354081 144.437735,32.6848056 146.741211,34.1573171 L183.535055,57.6780156 C185.472136,58.9163073 186.315144,61.3159511 185.578125,63.4936687 L178.200221,85.2936358 C177.314978,87.9093203 178.717778,90.747383 181.333462,91.632626 C181.426495,91.6641117 181.520435,91.6928494 181.615161,91.7188016 L208.712727,99.1427923 C211.15193,99.8110702 212.708025,102.195512 212.337638,104.697335 L211.937476,107.439593 C209.732303,122.780262 208.588109,134.741515 208.504895,143.323351 L208.398248,201.329688 C208.391465,204.0863 206.154884,206.317388 203.398263,206.317388 L175,206.317388 C172.238576,206.317388 170,208.555964 170,211.317388 L170,216.819273 C170,219.580696 172.238576,221.819273 175,221.819273 L203.308704,221.819273 C205.997458,221.819273 208.190522,223.941579 208.304084,226.602383 L208.308659,226.84042 L208,299.817388 C208,305.580006 208.696334,311.179987 210.009449,316.537779 C210.402274,318.140588 211.03474,320.177816 211.906849,322.649465 C212.82568,325.253539 211.459523,328.109419 208.85545,329.028253 C208.660204,329.097145 208.46087,329.153841 208.258598,329.198017 L210.159914,328.785641 C212.357168,328.309072 214.602296,329.35771 215.64709,331.348552 L216.747317,333.427495 C217.993913,335.760024 218.880707,337.328413 219.407701,338.132663 C221.131204,340.762917 223.027041,343.270087 225.079166,345.638127 C237.679447,360.178163 256.171944,369.472869 276.842422,369.80801 L278,369.817388 L308,369.817388 C332.462635,369.817388 353.994461,357.269108 366.509885,338.258143 L366.886374,337.680081 C367.543012,336.660945 368.683116,334.594815 370.306686,331.481692 C371.350208,329.480793 373.604687,328.426879 375.809156,328.909425 L465.006054,348.434103 C467.7036,349.02459 469.411719,351.690062 468.821241,354.387611 C468.783248,354.56118 468.73603,354.732601 468.679788,354.901143 L467.257449,359.132806 C466.314589,361.915457 465.475271,364.342983 464.739494,366.415381 L464.992375,365.756111 C467.543014,359.041962 469.670566,352.119419 471.342466,345.021044 C470.551308,347.312283 468.200867,348.726136 465.777578,348.310461 L465.559421,348.268105 L377.642456,329.199545 C377.437776,329.155152 377.236087,329.097942 377.038582,329.028253 C374.434509,328.109419 373.068352,325.253539 373.987183,322.649465 C374.859291,320.177816 375.491758,318.140588 375.884583,316.537779 C377.120456,311.495152 377.809976,306.23799 377.88682,300.832616 L377.894032,299.817388 L377.585373,226.84042 L377.589948,226.602383 C377.700355,224.015491 379.776341,221.937594 382.362447,221.824151 L382.585328,221.819273 L410.894032,221.819273 C413.582787,221.819273 415.77585,219.696966 415.889412,217.036162 L415.894032,216.819273 L415.894032,211.317388 C415.894032,208.628633 413.771725,206.435569 411.110922,206.322007 L410.894032,206.317388 L382.495768,206.317388 C379.81169,206.317388 377.620641,204.202181 377.50092,201.546192 L377.495784,201.329688 L377.389137,143.323351 C377.307554,134.909786 376.206191,123.248032 374.085048,108.338087 L373.956556,107.439593 L373.556394,104.697335 C373.197231,102.271325 374.649562,99.9556897 376.962021,99.208228 L377.181305,99.1427923 L404.278871,91.7188016 C404.373596,91.6928494 404.467537,91.6641117 404.560569,91.632626 C407.10556,90.7713084 408.502341,88.0613027 407.760595,85.5061627 L407.693811,85.2936358 L400.315907,63.4936687 C399.603455,61.3885416 400.367451,59.076037 402.168934,57.8056647 L402.358977,57.6780156 L439.152821,34.1573171 C441.188106,32.856248 443.813284,33.2126908 445.435044,34.8877841 C444.704384,32.8034754 445.434387,30.4275404 447.308225,29.1312435 L447.506138,29.0010513 L450.938742,26.8556736 C453.217271,25.4315933 456.213913,26.0629531 457.724173,28.2852971 C459.32778,30.6449834 460.632727,32.616004 461.639013,34.1983588 L461.836288,34.5096475 L462.350879,35.3295859 C478.91803,61.8901323 488.561774,93.2148946 488.75686,126.778623 L488.759878,127.817388 L488.759878,310.817388 C488.759878,341.121217 480.830815,369.573114 466.934169,394.211599 C466.178801,395.550852 465.18941,397.209867 463.965995,399.188642 L463.679515,399.650959 L462.770222,401.106024 C462.715571,401.192972 462.658254,401.278216 462.598353,401.361635 C461.281729,403.195171 458.953864,403.872444 456.922606,403.178852 C458.138673,404.459423 458.574734,406.287123 458.107238,407.95967 C459.371675,406.844764 461.116562,406.451907 462.723008,406.889626 C461.676454,405.308532 461.585558,403.203585 462.644493,401.496727 C465.426134,397.013106 467.579829,393.359862 469.105578,390.536994 L469.301028,390.173503 L469.656326,389.502002 C481.805256,366.276383 488.743589,339.894628 488.919498,311.908562 L488.922927,310.817388 L488.922927,127.817388 L488.917893,126.475947 C488.652022,91.0621673 477.867158,58.1514462 459.533146,30.7136312 C459.324157,30.4008671 459.090599,30.0562277 458.832474,29.679713 L458.634274,29.3913503 L457.984396,28.4545431 L457.898882,28.3279344 C456.431584,26.0822739 457.00262,23.0941627 459.15562,21.5405988 L459.349685,21.4072979 L490.866707,0.814300022 C492.688786,-0.37623355 495.071708,-0.251285981 496.759291,1.12327102 Z M311.860988,468.808542 L310,468.817388 L310,468.817388 C310.621132,468.817388 311.241467,468.814437 311.860988,468.808542 Z M424.266254,426.118022 L423.871572,426.477034 C394.651834,452.871056 355.43478,468.289468 312.235869,468.804081 C355.629663,468.308231 395.005476,453.357863 424.266254,426.118022 Z M273.254886,468.795148 L273.17251,468.795887 L273.325154,468.798147 L273.254886,468.795148 L273.0199,468.7935 Z M257.439081,467.877618 L257.439003,467.879106 L257.654321,467.899145 C257.582561,467.89201 257.510814,467.884835 257.439081,467.877618 Z M159.793473,424.153 L160.738648,425.047536 C186.236318,449.041763 219.590881,463.911524 256.670902,467.798714 C219.130945,463.808784 185.40944,448.259974 159.793473,424.153 Z M126.588,379.17 L126.715864,379.43427 C128.000758,382.06842 129.353319,384.663507 130.771283,387.217268 C131.662697,388.82271 132.916735,390.940486 134.533396,393.570597 C135.906733,395.804862 135.320396,398.720553 133.190134,400.25025 L130.13927,402.441012 C127.896238,404.051678 124.772197,403.539052 123.161525,401.296024 L123.0955,401.201599 C123.156173,401.299572 123.217151,401.397948 123.278433,401.496727 C124.419849,403.336532 124.225336,405.638857 122.940267,407.250152 C124.908451,406.664413 127.108772,407.343884 128.385953,409.080905 C127.269917,406.976419 127.798374,404.336182 129.697776,402.83069 L129.890319,402.68539 L133.124429,400.363043 C135.062678,398.971226 137.672431,399.159951 139.388506,400.709595 C134.869643,394.337099 130.807868,387.590091 127.248662,380.501292 L126.588,379.17 Z M450.721237,394.736271 L450.470837,395.131562 C449.273806,396.99602 448.039444,398.830802 446.768783,400.635234 C448.159408,399.3948 450.1322,399.04064 451.859951,399.697104 C450.601091,398.374118 450.170004,396.463059 450.721237,394.736271 Z M97.0840517,316.149023 L97.0861828,316.246984 C97.9013426,342.260061 104.561342,366.799078 115.795906,388.595514 L116.266601,389.502002 C116.793242,390.508804 117.413178,391.638977 118.126408,392.892519 C105.479525,370.021664 97.9503284,343.924956 97.0840517,316.149023 Z M111.752,330.95 L111.921483,332.08736 C113.544434,342.686547 116.169816,352.954624 119.697688,362.792863 L119.638053,362.613173 C119.020268,360.772998 118.165632,358.076297 117.074146,354.523069 C116.263287,351.88338 117.745842,349.086156 120.38553,348.275293 C120.513527,348.235975 120.643049,348.201815 120.773783,348.172895 L120.334611,348.268105 C117.642565,348.851995 114.985354,347.148525 114.392112,344.458524 L113.95631,342.458625 C112.998072,338.00512 112.27856,334.263332 111.797773,331.233261 L111.752,330.95 Z M263,276.817388 C265.761424,276.817388 268,279.055964 268,281.817388 L268,324.817388 C268,327.578811 265.761424,329.817388 263,329.817388 L249.271238,329.817388 C247.547288,329.817388 245.944938,328.929289 245.031247,327.467382 L229.760008,303.033401 C229.263347,302.238743 229,301.320505 229,300.383406 L229,281.817388 C229,279.055964 231.238576,276.817388 234,276.817388 L263,276.817388 Z M352,276.817388 C354.688755,276.817388 356.881818,278.939694 356.99538,281.600498 L357,281.817388 L357,300.383406 C357,301.226795 356.786689,302.054907 356.38196,302.791401 L356.239992,303.033401 L340.968753,327.467382 C340.096593,328.862839 338.596957,329.735466 336.963039,329.811912 L336.728762,329.817388 L323,329.817388 C320.311245,329.817388 318.118182,327.695081 318.00462,325.034277 L318,324.817388 L318,281.817388 C318,279.128633 320.122307,276.935569 322.78311,276.822007 L323,276.817388 L352,276.817388 Z M97.003,311.908 L97.0059891,312.20414 L97.009,312.599 L97.003,311.908 Z M97,310.817388 L97.0022902,311.709244 L97.003,311.808 L97,310.817388 Z M110.000003,306.847428 L110.001129,307.370516 L110.003,307.836 L110.000003,306.847428 Z M352.5,206.817388 C355.261424,206.817388 357.5,209.055964 357.5,211.817388 L357.5,265.817388 C357.5,268.578811 355.261424,270.817388 352.5,270.817388 L323.5,270.817388 C320.738576,270.817388 318.5,268.578811 318.5,265.817388 L318.5,211.817388 C318.5,209.055964 320.738576,206.817388 323.5,206.817388 L352.5,206.817388 Z M262.5,206.817388 C265.261424,206.817388 267.5,209.055964 267.5,211.817388 L267.5,265.817388 C267.5,268.578811 265.261424,270.817388 262.5,270.817388 L233.5,270.817388 C230.738576,270.817388 228.5,268.578811 228.5,265.817388 L228.5,211.817388 C228.5,209.055964 230.738576,206.817388 233.5,206.817388 L262.5,206.817388 Z M307.5,206.817388 C310.261424,206.817388 312.5,209.055964 312.5,211.817388 L312.5,244.817388 C312.5,247.578811 310.261424,249.817388 307.5,249.817388 L278.5,249.817388 C275.738576,249.817388 273.5,247.578811 273.5,244.817388 L273.5,211.817388 C273.5,209.055964 275.738576,206.817388 278.5,206.817388 L307.5,206.817388 Z M307.5,108.817388 C310.261424,108.817388 312.5,111.055964 312.5,113.817388 L312.5,190.817388 C312.5,193.578811 310.261424,195.817388 307.5,195.817388 L278.5,195.817388 C275.738576,195.817388 273.5,193.578811 273.5,190.817388 L273.5,113.817388 C273.5,111.055964 275.738576,108.817388 278.5,108.817388 L307.5,108.817388 Z M263.5,108.817388 C266.261424,108.817388 268.5,111.055964 268.5,113.817388 L268.5,190.817388 C268.5,193.578811 266.261424,195.817388 263.5,195.817388 L234.5,195.817388 C231.738576,195.817388 229.5,193.578811 229.5,190.817388 L229.5,143.385689 C229.5,142.681436 229.648774,141.985126 229.936577,141.342365 L243.176115,111.774064 C243.981564,109.975227 245.768609,108.817388 247.739538,108.817388 L263.5,108.817388 Z M338.260462,108.817388 C340.155586,108.817388 341.880699,109.887875 342.726638,111.56938 L342.823885,111.774064 L356.063423,141.342365 C356.310112,141.893303 356.454656,142.483583 356.49092,143.084486 L356.5,143.385689 L356.5,190.817388 C356.5,193.506142 354.377693,195.699206 351.71689,195.812768 L351.5,195.817388 L322.5,195.817388 C319.811245,195.817388 317.618182,193.695081 317.50462,191.034277 L317.5,190.817388 L317.5,113.817388 C317.5,111.128633 319.622307,108.935569 322.28311,108.822007 L322.5,108.817388 L338.260462,108.817388 Z M110.010511,308.639365 L110.0098,308.640025 L110.012793,308.834141 C110.011995,308.769225 110.011234,308.7043 110.010511,308.639365 Z" id="Combined-Shape" fill="#FFFFFF"></path>
        <path d="M295.806,19.7987436 C295.740203,20.1229265 295.675748,20.4472734 295.612643,20.7717895 C295.371952,22.0140778 295.142479,23.2576995 294.924246,24.5025585 C294.212554,28.5465169 293.500861,33.1306495 292.836342,38.1664525 C290.938592,52.5534804 289.8,67.6757969 289.8,82.6621496 C289.8,97.9667405 290.938592,113.089285 292.836342,127.476313 C293.500861,132.511889 294.212554,137.096248 294.924246,141.139978 C295.173514,142.555754 295.405018,143.803012 295.612643,144.870747 C295.685443,145.244466 295.75009,145.56935 295.806,145.843792 C295.839488,146.008871 295.862493,146.120298 295.86657,146.177388 L297.08,146.177388 C297.08,146.177388 296.884896,145.102087 296.812387,144.730201 C296.605635,143.667052 296.375005,142.424151 296.126611,141.01273 C295.416374,136.979089 294.706429,132.405275 294.043658,127.380477 C292.149693,113.023254 291.01343,97.9323488 291.01343,82.6621496 C291.01343,67.7104157 292.149693,52.619283 294.043658,38.2622885 C294.706429,33.2372617 295.416374,28.6634478 296.126611,24.6298058 C296.375005,23.2183863 296.605635,21.9754849 296.812387,20.9123361 C296.884896,20.5404501 296.949251,20.2176314 297.004579,19.9452513 C297.037485,19.7824655 297.068352,19.6662235 297.08,19.6173876 L295.86657,19.6173876 C295.85463,19.6744773 295.839488,19.6338964 295.806,19.7987436 L295.806,19.7987436 Z" id="Path" fill="#E0E0DC" fill-rule="nonzero" transform="translate(293.440000, 82.897388) scale(-1, 1) rotate(-90.000000) translate(-293.440000, -82.897388) "></path>
        <text id="Сцена" fill="#454545" font-family="ArialMT, Arial" font-size="10.78" font-weight="normal">
            <tspan x="277.96" y="78.7773876">Сцена</tspan>
        </text>
        <text id="С10-С15" fill="#454545" font-family="ArialMT, Arial" font-size="15" font-weight="normal">
            <tspan x="18" y="220.817388">С10-С15</tspan>
        </text>
        <text id="С22-24,-С1-С3" fill="#454545" font-family="ArialMT, Arial" font-size="15" font-weight="normal">
            <tspan x="513.317871" y="212.817388">С22-24,</tspan>
            <tspan x="518.327637" y="229.817388">С1-С3</tspan>
        </text>
        <text id="С4-С9" fill="#454545" font-family="ArialMT, Arial" font-size="15" font-weight="normal">
            <tspan x="271" y="497.817388">С4-С9</tspan>
        </text>
        <text id="A9-A14" fill="#454545" font-family="ArialMT, Arial" font-size="15" font-weight="normal">
            <tspan x="135" y="262.817388">A9-A14</tspan>
        </text>
        <text id="A17-18,-A1-A2" fill="#454545" font-family="ArialMT, Arial" font-size="15" font-weight="normal">
            <tspan x="401.231689" y="254.817388">A17-18,</tspan>
            <tspan x="406.655273" y="271.817388">A1-A2</tspan>
        </text>
        <text id="A3-A8" fill="#454545" font-family="ArialMT, Arial" font-size="15" font-weight="normal">
            <tspan x="272" y="423.817388">A3-A8</tspan>
        </text>
        <text id="A1" fill="#454545" font-family="ArialMT, Arial" font-size="15" font-weight="normal">
            <tspan x="241.826416" y="165.817388">A1</tspan>
        </text>
        <text id="A2" fill="#454545" font-family="ArialMT, Arial" font-size="15" font-weight="normal">
            <tspan x="283.826416" y="165.817388">A2</tspan>
        </text>
        <text id="A3" fill="#454545" font-family="ArialMT, Arial" font-size="15" font-weight="normal">
            <tspan x="328.826416" y="165.817388">A3</tspan>
        </text>
        <text id="B1" fill="#454545" font-family="ArialMT, Arial" font-size="15" font-weight="normal">
            <tspan x="241.826416" y="233.817388">B1</tspan>
        </text>
        <text id="B2" fill="#454545" font-family="ArialMT, Arial" font-size="15" font-weight="normal">
            <tspan x="283.826416" y="233.817388">B2</tspan>
        </text>
        <text id="B3" fill="#454545" font-family="ArialMT, Arial" font-size="15" font-weight="normal">
            <tspan x="328.826416" y="233.817388">B3</tspan>
        </text>
        <text id="C1" fill="#454545" font-family="ArialMT, Arial" font-size="15" font-weight="normal">
            <tspan x="241.412598" y="301.817388">C1</tspan>
        </text>
        <text id="C3" fill="#454545" font-family="ArialMT, Arial" font-size="15" font-weight="normal">
            <tspan x="328.412598" y="301.817388">C3</tspan>
        </text>
        <text id="Ложи-11-18" fill="#454545" transform="translate(103.000000, 214.317388) rotate(-90.000000) translate(-103.000000, -214.317388) " font-family="ArialMT, Arial" font-size="8" font-weight="normal">
            <tspan x="82.2402344" y="216.817388">Ложи 11-18</tspan>
        </text>
        <text id="Ложи-23-28,-1-4" fill="#454545" transform="translate(482.000000, 214.317388) scale(-1, -1) rotate(-90.000000) translate(-482.000000, -214.317388) " font-family="ArialMT, Arial" font-size="8" font-weight="normal">
            <tspan x="452.939453" y="216.817388">Ложи 23-28, 1-4</tspan>
        </text>
        <text id="Ложи-5-10" fill="#454545" transform="translate(293.000000, 474.317388) scale(-1, -1) rotate(-180.000000) translate(-293.000000, -474.317388) " font-family="ArialMT, Arial" font-size="8" font-weight="normal">
            <tspan x="274.167969" y="476.817388">Ложи 5-10</tspan>
        </text>
    </g>
</svg>